Coordinates
version=1
nRows=26
nColumns=24
inDegrees=yes

Units are S.I. units (second, meters, Newtons, ...)
Angles are in degrees.

endheader
time	pelvis_tilt	pelvis_list	pelvis_rotation	pelvis_tx	pelvis_ty	pelvis_tz	hip_flexion_r	hip_adduction_r	hip_rotation_r	knee_angle_r	ankle_angle_r	subtalar_angle_r	mtp_angle_r	hip_flexion_l	hip_adduction_l	hip_rotation_l	knee_angle_l	ankle_angle_l	subtalar_angle_l	mtp_angle_l	lumbar_extension	lumbar_bending	lumbar_rotation
      0.50400000	      0.44531334	      2.37788937	      2.51655323	     -0.79591365	      1.00179170	      0.29792185	     23.41591089	     -3.22316510	     -6.48116303	     -3.90599624	     -1.35655548	     -8.25077199	    -11.19777328	    -12.79237807	      3.68575081	     -6.77032499	     -8.12389216	     15.27115756	     -6.35042730	    -18.51659974	    -11.97477151	     -2.13377609	     -1.41103369
      0.50816667	      0.64796290	      2.24732360	      2.51849441	     -0.78996405	      1.00133301	      0.29826717	     23.09740302	     -3.03221267	     -6.52850955	     -4.11591034	     -1.59427645	     -8.32122713	    -10.93148792	    -13.16584941	      3.44378134	     -6.88001059	     -8.58481660	     15.57016733	     -5.98366754	    -18.65756529	    -12.15277140	     -1.92675025	     -1.38914687
      0.51233333	      0.83965894	      2.11723244	      2.46140608	     -0.78398879	      1.00085814	      0.29875629	     22.80989502	     -2.81233250	     -6.48834552	     -4.38831270	     -1.84465615	     -8.45563525	    -10.67713257	    -13.51959782	      3.21012455	     -7.05057776	     -9.06335997	     15.80488242	     -5.66704790	    -18.80181584	    -12.31440699	     -1.73245447	     -1.34530317
      0.51650000	      1.00613772	      1.98823207	      2.40570273	     -0.77798930	      1.00038837	      0.29923722	     22.56013910	     -2.59761469	     -6.48206444	     -4.71901108	     -2.10046315	     -8.59035846	    -10.43677308	    -13.82754429	      2.97905531	     -7.19588191	     -9.58213404	     16.00373389	     -5.37244498	    -18.93794111	    -12.44352559	     -1.53907948	     -1.27685948
      0.52066667	      1.15950346	      1.85197837	      2.34601847	     -0.77195046	      0.99995191	      0.29972325	     22.32437221	     -2.37497133	     -6.48208898	     -5.08263929	     -2.38120005	     -8.75014631	    -10.20314105	    -14.10512842	      2.74245456	     -7.33098316	    -10.12582642	     16.13710184	     -5.13511060	    -19.05707357	    -12.55603921	     -1.33770680	     -1.23307014
      0.52483333	      1.31982394	      1.71437130	      2.28295249	     -0.76589653	      0.99957296	      0.30020178	     22.08254302	     -2.15271348	     -6.49286451	     -5.47321344	     -2.68229168	     -8.91033425	     -9.98950736	    -14.37196657	      2.50648016	     -7.44974784	    -10.70422738	     16.22224773	     -4.94956182	    -19.14337921	    -12.67470367	     -1.13147023	     -1.17096771
      0.52900000	      1.36817950	      1.65499270	      2.21110051	     -0.75990297	      0.99905238	      0.30064478	     22.01341700	     -2.02742220	     -6.52447748	     -5.98530431	     -2.91127742	     -8.93495400	     -9.96601991	    -14.49458525	      2.37621088	     -7.46284373	    -11.31591093	     16.16396893	     -5.00420046	    -19.15173809	    -12.67205412	     -1.01948591	     -1.15740754
      0.53316667	      1.58831794	      1.44275638	      2.16160890	     -0.75374228	      0.99891277	      0.30115943	     21.65304578	     -1.72039353	     -6.52559714	     -6.30767901	     -3.36275196	     -9.27498033	     -9.75315527	    -14.77783712	      2.04077170	     -7.61950619	    -11.98594117	     16.21715581	     -4.70577853	    -19.16322421	    -12.85467851	     -0.71842692	     -1.09168037
      0.53733333	      1.75538883	      1.29280190	      2.04288828	     -0.74763074	      0.99869378	      0.30176469	     21.40309358	     -1.46681319	     -6.49302164	     -6.72647349	     -3.79223084	     -9.47393567	     -9.42806863	    -14.98359398	      1.79736623	     -7.78774293	    -12.69264729	     16.18996299	     -4.57350515	    -19.12935807	    -12.98416905	     -0.50945004	     -1.01526410
      0.54150000	      1.79310213	      1.17119852	      1.98679822	     -0.74148726	      0.99836716	      0.30218144	     21.29393542	     -1.28655629	     -6.54769666	     -7.17910667	     -4.18961072	     -9.58326118	     -9.33762794	    -15.01539152	      1.58973419	     -7.81586009	    -13.45120584	     16.01268447	     -4.61986183	    -19.10618260	    -12.94865270	     -0.30275756	     -0.96423751
      0.54566667	      1.96362073	      1.01544956	      1.89991091	     -0.73538249	      0.99829207	      0.30275785	     21.02030763	     -1.03849514	     -6.52148913	     -7.58108067	     -4.65163557	     -9.91745125	     -9.10929270	    -15.15596838	      1.32907980	     -7.93649706	    -14.26655863	     15.81140991	     -4.58832409	    -18.99083809	    -13.08861401	     -0.08354615	     -0.90824934
      0.54983333	      2.02998401	      0.88295254	      1.80783079	     -0.72922562	      0.99812715	      0.30325219	     20.86987474	     -0.83861981	     -6.54758831	     -8.01064737	     -5.14827359	     -9.99354507	     -9.01237168	    -15.15768992	      1.11082431	     -8.01496293	    -15.12737777	     15.54306998	     -4.64498364	    -18.92390097	    -13.09810409	      0.12133362	     -0.84994243
      0.55400000	      2.21155004	      0.72655631	      1.68295902	     -0.72312826	      0.99818076	      0.30394901	     20.57665630	     -0.57397851	     -6.44664058	     -8.39738184	     -5.63601129	    -10.41555967	     -8.71827364	    -15.24533223	      0.84692500	     -8.18747709	    -16.05628388	     15.26397857	     -4.62481742	    -18.65139282	    -13.25844146	      0.32960086	     -0.76145639
      0.55816667	      2.28337496	      0.57519935	      1.57948511	     -0.71696010	      0.99813944	      0.30454328	     20.39872252	     -0.34386391	     -6.41122883	     -8.79267719	     -6.13864754	    -10.65757901	     -8.43799962	    -15.17026329	      0.58952557	     -8.33678390	    -17.06729072	     14.87822920	     -4.69389216	    -18.32461713	    -13.26977894	      0.55162175	     -0.64734900
      0.56233333	      2.35160204	      0.45041535	      1.45275380	     -0.71080765	      0.99814838	      0.30511478	     20.24954866	     -0.15433192	     -6.42039966	     -9.23985730	     -6.62010743	    -10.69564227	     -8.33005587	    -15.06854778	      0.37369790	     -8.46714924	    -18.09881693	     14.42502765	     -4.75686603	    -18.17527746	    -13.29389815	      0.73797045	     -0.58764753
      0.56650000	      2.45572895	      0.32313545	      1.26251011	     -0.70470420	      0.99822149	      0.30590937	     20.05822259	      0.07796869	     -6.29070456	     -9.66054719	     -7.13719153	    -11.05904946	     -2.16170664	    -14.96941204	      0.14910400	     -8.71425238	    -19.16198902	     13.54905486	     -5.23342512	     -6.77109154	    -13.36488271	      0.89702418	     -0.36619773
      0.57066667	      2.56335818	      0.16705393	      1.15526909	     -0.69858200	      0.99841775	      0.30652521	     19.82627380	      0.30271145	     -6.24622603	    -10.04292419	     -7.57442962	    -11.26884620	     -2.24915512	    -14.80736533	     -0.13017766	     -8.88799480	    -20.36825205	     13.01279736	     -5.34796740	     -6.67113707	    -13.43495927	      1.11757272	     -0.32990069
      0.57483333	      2.64281682	      0.01511194	      1.03104405	     -0.69244374	      0.99860335	      0.30711035	     19.64393304	      0.51000961	     -6.24090243	    -10.47984254	     -7.91482584	    -11.33764677	     -2.28795002	    -14.58051036	     -0.40258429	     -9.08458601	    -21.63063099	     12.37799259	     -5.45124537	     -6.59875858	    -13.47039735	      1.35546071	     -0.24300491
      0.57900000	      2.71658154	     -0.12670036	      0.81686992	     -0.68640013	      0.99879957	      0.30802925	     19.46803600	      0.76582150	     -6.02787521	    -10.88670619	     -8.33891344	    -11.67427230	     -2.38341447	    -14.30286585	     -0.66737680	     -9.37794584	    -22.97121282	     11.67542221	     -5.68750132	     -6.28929880	    -13.52381970	      1.50927184	     -0.04187958
      0.58316667	      2.78280800	     -0.30714360	      0.68994500	     -0.68025969	      0.99905737	      0.30866247	     19.28164763	      0.99884151	     -6.00606327	    -11.31354518	     -8.52572678	    -11.65586501	     -2.41481020	    -13.96885678	     -0.99578508	     -9.61652420	    -24.38426353	     10.91935550	     -5.77925653	     -6.14962762	    -13.54608724	      1.76408412	      0.07084277
      0.58733333	      2.84657556	     -0.48042294	      0.39293381	     -0.67419376	      0.99927625	      0.30982087	     19.11507392	      1.31763870	     -5.70170413	    -11.73727503	     -8.79417963	    -11.91712365	     -4.51522183	    -13.61524601	     -1.32206274	    -10.09250772	    -25.80123509	      9.76921854	     -6.30948276	      6.79337690	    -13.58658332	      1.92484586	      0.42889185
      0.59150000	      3.27296002	     -1.47905702	     -1.94803725	     -0.66611329	      0.99951954	      0.31882342	     18.26513898	      3.72570743	     -2.40020531	    -11.60661465	     -9.63952415	    -14.48553305	     -4.64349382	    -14.11855373	     -3.33586090	    -16.31490525	    -26.37951229	      9.59633254	    -11.50534986	      6.79337690	    -13.88967379	      2.11021527	      2.99527388
      0.59566667	      3.16368655	     -1.59056416	     -2.02655780	     -0.66030602	      0.99957002	      0.31934004	     18.30618627	      3.85909470	     -2.40959145	    -12.11955910	     -9.67632866	    -14.47911896	     -4.74407864	    -13.43763047	     -3.62259000	    -16.12165956	    -28.16454308	      8.90876903	    -11.27923608	      6.79337690	    -13.75331674	      2.29399034	      2.97629998
      0.59983333	      3.18033940	     -1.77118551	     -2.07835957	     -0.65444298	      0.99989419	      0.31970203	     18.15952080	      4.03839737	     -2.46532045	    -12.54950545	     -9.67024071	    -14.35368457	     -4.77266295	    -12.87765615	     -3.96856425	    -15.90840273	    -29.94321613	      8.03032367	    -11.14668960	      6.79337690	    -13.76488786	      2.56857690	      3.10636156
      0.60400000	      3.05008053	     -1.88828555	     -2.07620337	     -0.64872097	      0.99997204	      0.31992283	     18.20890829	      4.12336087	     -2.62273439	    -13.04072792	     -9.62967975	    -14.14893421	     -4.85615583	    -12.05635770	     -4.26570721	    -15.60141732	    -31.86922279	      7.19841930	    -11.00987530	      6.79337690	    -13.61270246	      2.78529027	      3.10159413
      0.60816667	      3.01281894	     -2.09047669	     -2.09372833	     -0.64291377	      1.00022733	      0.32013990	     18.10813235	      4.29874777	     -2.76534804	    -13.45264790	     -9.55633804	    -13.90826705	     -4.89472562	    -11.33391136	     -4.64546888	    -15.36121206	    -33.78925533	      6.19186697	    -10.95699133	      6.79337690	    -13.56360522	      3.09565997	      3.21460744
